<svg width="17" height="17" viewBox="0 0 17 17" fill="none" xmlns="http://www.w3.org/2000/svg">
<g id="Amazon">
<path id="Vector" d="M13.7815 13.5371C12.407 14.5517 10.3452 15.1735 8.6762 15.1735C6.2872 15.1735 4.16001 14.2244 2.5237 12.7517C2.3928 12.6208 2.5237 12.4899 2.65461 12.5554C4.42182 13.5699 6.4181 14.1589 8.64347 14.1589C10.1489 14.1589 12.047 13.8317 13.5851 13.1772C13.8142 13.1117 14.0105 13.3735 13.7815 13.5371ZM14.2724 12.8499C14.1087 12.6208 13.1269 12.7517 12.7015 12.7845C12.5706 12.7845 12.5379 12.6863 12.6688 12.5881C13.4215 12.0318 14.6978 12.1954 14.8287 12.3917C14.9596 12.5881 14.796 13.8644 14.076 14.4535C13.9778 14.5517 13.8469 14.4862 13.9124 14.388C14.076 13.9953 14.436 13.079 14.2724 12.8499Z" fill="#FFB300"/>
<path id="Vector_2" d="M12.8978 10.5262C12.5705 10.1008 12.2433 9.74079 12.2433 8.92264V6.20638C12.2433 5.06097 12.2433 4.04646 11.4251 3.26103C10.7706 2.63924 9.69065 2.41016 8.83977 2.41016C7.03984 2.41016 5.46899 3.13013 5.07627 5.15914C5.04355 5.38823 5.20718 5.4864 5.33808 5.51913L7.00711 5.71549C7.17074 5.71549 7.26892 5.55186 7.30164 5.38823C7.43255 4.70098 7.98889 4.37372 8.64341 4.37372C9.0034 4.37372 9.69065 4.57008 9.69065 5.3555V6.33728C8.64341 6.33728 7.53073 6.33728 6.6144 6.72999C5.53444 7.18816 4.78174 8.13721 4.78174 9.54443C4.78174 11.3444 5.89442 12.228 7.33437 12.228C8.54523 12.228 9.26521 11.9334 10.2143 10.9844C10.5088 11.4425 10.6397 11.7044 11.196 12.1952C11.3269 12.2607 11.4906 12.2607 11.5888 12.1625C11.916 11.868 12.5378 11.3116 12.8978 11.0171C13.0614 10.8862 13.0287 10.6898 12.8978 10.5262ZM9.65792 8.00631C9.65792 8.66083 9.62519 10.2644 8.02162 10.2644C7.03984 10.2644 7.03984 9.28263 7.03984 9.28263C7.03984 7.80995 8.41433 7.64632 9.65792 7.64632V8.00631Z" fill="#37474F"/>
</g>
</svg>
