<svg width="40" height="41" viewBox="0 0 40 41" fill="none" xmlns="http://www.w3.org/2000/svg">
<g id="Card Payment">
<path id="Vector" d="M13.75 7.56763C11.2335 7.56763 9.16665 9.63448 9.16665 12.151V16.6122L7.68228 17.0696V17.068C6.23191 17.5139 4.99303 18.4744 4.19758 19.7665L2.13052 23.1259C2.0407 23.2657 1.97965 23.4221 1.95097 23.5858C1.92228 23.7495 1.92653 23.9173 1.96345 24.0793C2.00038 24.2414 2.06925 24.3944 2.16603 24.5295C2.26281 24.6646 2.38556 24.7791 2.5271 24.8662C2.66864 24.9533 2.82613 25.0113 2.99036 25.0368C3.15458 25.0624 3.32225 25.0549 3.48355 25.0148C3.64486 24.9748 3.79655 24.903 3.92977 24.8036C4.06299 24.7043 4.17506 24.5793 4.25943 24.4361L6.32648 21.0767C6.80436 20.3005 7.54833 19.7263 8.41795 19.4589L9.16665 19.2278V24.568C9.16665 24.9973 9.23872 25.4142 9.37173 25.8033C9.43249 25.9809 9.53245 26.1425 9.66419 26.2761C9.79593 26.4098 9.95607 26.5121 10.1327 26.5754C10.3094 26.6387 10.4981 26.6614 10.6847 26.6419C10.8714 26.6223 11.0512 26.561 11.2109 26.4625L18.4961 21.9687C18.501 21.9654 18.5059 21.9622 18.5107 21.9589C19.0407 21.6215 19.7163 21.6947 20.1611 22.1396C20.7005 22.6793 20.6887 23.5159 20.1351 24.0406L17.8499 26.1321C17.7598 26.1944 17.6783 26.2683 17.6074 26.3518C17.6052 26.3545 17.6031 26.3572 17.6009 26.3599L11.4583 31.9768C10.4608 32.889 9.15945 33.3947 7.8076 33.3961L2.91503 33.401C2.74939 33.3988 2.58498 33.4297 2.43136 33.4916C2.27774 33.5536 2.13797 33.6455 2.02017 33.762C1.90236 33.8784 1.80888 34.0171 1.74515 34.17C1.68142 34.3229 1.64871 34.487 1.64893 34.6526C1.64914 34.8183 1.68228 34.9822 1.74641 35.135C1.81054 35.2877 1.90438 35.4261 2.02248 35.5423C2.14059 35.6585 2.2806 35.75 2.43438 35.8115C2.58817 35.8731 2.75265 35.9035 2.91828 35.901L6.92707 35.8977C6.97893 35.9037 7.03112 35.9064 7.08332 35.9058L15.3092 35.901C17.2847 35.899 19.1889 35.1584 20.6461 33.8258L26.5771 28.401H33.75C36.2665 28.401 38.3333 26.3341 38.3333 23.8176V12.151C38.3333 9.63448 36.2665 7.56763 33.75 7.56763H13.75ZM13.75 10.0676H33.75C34.9152 10.0676 35.8333 10.9858 35.8333 12.151V13.401H11.6667V12.151C11.6667 10.9858 12.5848 10.0676 13.75 10.0676ZM11.6667 15.901H35.8333V23.8176C35.8333 24.9828 34.9152 25.901 33.75 25.901H26.2679C26.2199 25.8944 26.1715 25.8906 26.123 25.8896C26.0648 25.8893 26.0066 25.8931 25.9489 25.901H21.805L21.8392 25.87C21.8446 25.8652 21.8501 25.8603 21.8555 25.8554C23.4068 24.3851 23.4394 21.8839 21.9287 20.372C20.6656 19.1089 18.6761 18.8912 17.1696 19.8495L11.6667 23.2431V17.7385C11.6892 17.6027 11.6892 17.4642 11.6667 17.3284V15.901ZM19.0723 28.401H22.8727L18.9583 31.9817C17.9606 32.8941 16.6604 33.3996 15.3076 33.401L13.6035 33.4026L19.0723 28.401Z" fill="#484F46"/>
</g>
</svg>
