<svg width="18" height="18" viewBox="0 0 18 18" fill="none" xmlns="http://www.w3.org/2000/svg">
<g id="Envelope">
<path id="Vector" d="M3.9375 2.99999C2.59802 2.99999 1.5 4.09802 1.5 5.43749V12.5625C1.5 13.902 2.59802 15 3.9375 15H14.0625C15.402 15 16.5 13.902 16.5 12.5625V5.43749C16.5 4.09802 15.402 2.99999 14.0625 2.99999H3.9375ZM3.9375 4.12499H14.0625C14.7938 4.12499 15.375 4.70622 15.375 5.43749V5.85204L9 9.29809L2.625 5.85204V5.43749C2.625 4.70622 3.20623 4.12499 3.9375 4.12499ZM2.625 7.13085L8.73267 10.4326C8.81479 10.477 8.90666 10.5002 9 10.5002C9.09334 10.5002 9.18521 10.477 9.26733 10.4326L15.375 7.13085V12.5625C15.375 13.2938 14.7938 13.875 14.0625 13.875H3.9375C3.20623 13.875 2.625 13.2938 2.625 12.5625V7.13085Z" fill="#F3F3F3"/>
</g>
</svg>
