<svg width="40" height="41" viewBox="0 0 40 41" fill="none" xmlns="http://www.w3.org/2000/svg">
<g id="In Transit">
<path id="Vector" d="M2.91673 9.23426C2.75109 9.23191 2.58664 9.26251 2.43293 9.32428C2.27921 9.38605 2.13931 9.47775 2.02135 9.59406C1.90339 9.71036 1.80972 9.84895 1.74578 10.0018C1.68185 10.1546 1.64893 10.3186 1.64893 10.4843C1.64893 10.6499 1.68185 10.8139 1.74578 10.9667C1.80972 11.1196 1.90339 11.2582 2.02135 11.3745C2.13931 11.4908 2.27921 11.5825 2.43293 11.6442C2.58664 11.706 2.75109 11.7366 2.91673 11.7343H15.4167C15.5824 11.7366 15.7468 11.706 15.9005 11.6442C16.0542 11.5825 16.1941 11.4908 16.3121 11.3745C16.4301 11.2582 16.5237 11.1196 16.5877 10.9667C16.6516 10.8139 16.6845 10.6499 16.6845 10.4843C16.6845 10.3186 16.6516 10.1546 16.5877 10.0018C16.5237 9.84895 16.4301 9.71036 16.3121 9.59406C16.1941 9.47775 16.0542 9.38605 15.9005 9.32428C15.7468 9.26251 15.5824 9.23191 15.4167 9.23426H2.91673ZM20.4167 9.23426C20.2511 9.23191 20.0866 9.26251 19.9329 9.32428C19.7792 9.38605 19.6393 9.47775 19.5214 9.59406C19.4034 9.71036 19.3097 9.84895 19.2458 10.0018C19.1819 10.1546 19.1489 10.3186 19.1489 10.4843C19.1489 10.6499 19.1819 10.8139 19.2458 10.9667C19.3097 11.1196 19.4034 11.2582 19.5214 11.3745C19.6393 11.4908 19.7792 11.5825 19.9329 11.6442C20.0866 11.706 20.2511 11.7366 20.4167 11.7343H22.9167C23.6221 11.7343 24.1667 12.2788 24.1667 12.9843V28.4009H14.821C14.2715 26.4856 12.4998 25.0676 10.4167 25.0676C8.33362 25.0676 6.56193 26.4856 6.01243 28.4009H5.41673C4.71131 28.4009 4.16673 27.8563 4.16673 27.1509V25.4843C4.16913 25.3169 4.13792 25.1509 4.07495 24.9958C4.01198 24.8408 3.91853 24.7 3.80014 24.5818C3.68175 24.4635 3.54083 24.3703 3.38572 24.3075C3.23062 24.2447 3.0645 24.2137 2.8972 24.2164C2.56596 24.2215 2.25032 24.358 2.01961 24.5957C1.7889 24.8334 1.66198 25.153 1.66673 25.4843V27.1509C1.66673 29.2072 3.36048 30.9009 5.41673 30.9009H6.01243C6.56193 32.8163 8.33362 34.2343 10.4167 34.2343C12.4998 34.2343 14.2715 32.8163 14.821 30.9009H25.1791C25.7286 32.8163 27.5003 34.2343 29.5834 34.2343C31.6665 34.2343 33.4382 32.8163 33.9877 30.9009H34.5834C36.6396 30.9009 38.3334 29.2072 38.3334 27.1509V21.8482C38.3334 21.322 38.2224 20.8052 38.0111 20.328L38.0095 20.3264L35.5518 14.7958V14.7942C34.9517 13.4429 33.6041 12.5676 32.1257 12.5676H26.6244C26.412 10.7064 24.8306 9.23426 22.9167 9.23426H20.4167ZM2.91673 14.2343C2.75109 14.2319 2.58664 14.2625 2.43293 14.3243C2.27921 14.386 2.13931 14.4778 2.02135 14.5941C1.90339 14.7104 1.80972 14.849 1.74578 15.0018C1.68185 15.1546 1.64893 15.3186 1.64893 15.4843C1.64893 15.6499 1.68185 15.8139 1.74578 15.9667C1.80972 16.1196 1.90339 16.2581 2.02135 16.3745C2.13931 16.4908 2.27921 16.5825 2.43293 16.6442C2.58664 16.706 2.75109 16.7366 2.91673 16.7343H12.0834C12.249 16.7366 12.4135 16.706 12.5672 16.6442C12.7209 16.5825 12.8608 16.4908 12.9788 16.3745C13.0967 16.2581 13.1904 16.1196 13.2543 15.9667C13.3183 15.8139 13.3512 15.6499 13.3512 15.4843C13.3512 15.3186 13.3183 15.1546 13.2543 15.0018C13.1904 14.849 13.0967 14.7104 12.9788 14.5941C12.8608 14.4778 12.7209 14.386 12.5672 14.3243C12.4135 14.2625 12.249 14.2319 12.0834 14.2343H2.91673ZM26.6667 15.0676H32.1257C32.6236 15.0676 33.0649 15.3551 33.2667 15.8098L34.7885 19.2343H26.6667V15.0676ZM2.91673 19.2343C2.75109 19.2319 2.58664 19.2625 2.43293 19.3243C2.27921 19.386 2.13931 19.4777 2.02135 19.5941C1.90339 19.7104 1.80972 19.849 1.74578 20.0018C1.68185 20.1546 1.64893 20.3186 1.64893 20.4843C1.64893 20.6499 1.68185 20.8139 1.74578 20.9667C1.80972 21.1196 1.90339 21.2581 2.02135 21.3745C2.13931 21.4908 2.27921 21.5825 2.43293 21.6442C2.58664 21.706 2.75109 21.7366 2.91673 21.7343H8.75006C8.9157 21.7366 9.08016 21.706 9.23387 21.6442C9.38758 21.5825 9.52748 21.4908 9.64544 21.3745C9.7634 21.2581 9.85707 21.1196 9.92101 20.9667C9.98494 20.8139 10.0179 20.6499 10.0179 20.4843C10.0179 20.3186 9.98494 20.1546 9.92101 20.0018C9.85707 19.849 9.7634 19.7104 9.64544 19.5941C9.52748 19.4777 9.38758 19.386 9.23387 19.3243C9.08016 19.2625 8.9157 19.2319 8.75006 19.2343H2.91673ZM26.6667 21.7343H35.822C35.8256 21.7722 35.8334 21.8103 35.8334 21.8482V27.1509C35.8334 27.8563 35.2888 28.4009 34.5834 28.4009H33.9877C33.4382 26.4856 31.6665 25.0676 29.5834 25.0676C28.4784 25.0676 27.4614 25.467 26.6667 26.1272V21.7343ZM10.4167 27.5676C11.5407 27.5676 12.4288 28.4283 12.4887 29.5354C12.4815 29.6122 12.4815 29.6896 12.4887 29.7665C12.4288 30.8736 11.5407 31.7343 10.4167 31.7343C9.29277 31.7343 8.40466 30.8736 8.34479 29.7665C8.35193 29.6896 8.35193 29.6122 8.34479 29.5354C8.40466 28.4283 9.29277 27.5676 10.4167 27.5676ZM29.5834 27.5676C30.7471 27.5676 31.6667 28.4872 31.6667 29.6509C31.6667 30.8146 30.7471 31.7343 29.5834 31.7343C28.4197 31.7343 27.5001 30.8146 27.5001 29.6509C27.5001 28.4872 28.4197 27.5676 29.5834 27.5676Z" fill="#484F46"/>
</g>
</svg>
