<svg width="31" height="32" viewBox="0 0 31 32" fill="none" xmlns="http://www.w3.org/2000/svg">
<g id="Instagram">
<path id="Vector" d="M9.65106 2.71045C5.32618 2.71045 1.80957 6.22706 1.80957 10.5519V21.4094C1.80957 25.7343 5.32618 29.2509 9.65106 29.2509H20.5085C24.8334 29.2509 28.35 25.7343 28.35 21.4094V10.5519C28.35 6.22706 24.8334 2.71045 20.5085 2.71045H9.65106ZM22.3181 7.53598C22.9816 7.53598 23.5245 8.07885 23.5245 8.74236C23.5245 9.40587 22.9816 9.94875 22.3181 9.94875C21.6546 9.94875 21.1117 9.40587 21.1117 8.74236C21.1117 8.07885 21.6546 7.53598 22.3181 7.53598ZM15.0798 9.34555C18.7412 9.34555 21.7149 12.3193 21.7149 15.9807C21.7149 19.642 18.7412 22.6158 15.0798 22.6158C11.4184 22.6158 8.44468 19.642 8.44468 15.9807C8.44468 12.3193 11.4184 9.34555 15.0798 9.34555ZM15.0798 10.5519C12.088 10.5519 9.65106 12.9888 9.65106 15.9807C9.65106 18.9725 12.088 21.4094 15.0798 21.4094C18.0716 21.4094 20.5085 18.9725 20.5085 15.9807C20.5085 12.9888 18.0716 10.5519 15.0798 10.5519Z" fill="#667064"/>
</g>
</svg>
