<svg width="41" height="40" viewBox="0 0 41 40" fill="none" xmlns="http://www.w3.org/2000/svg">
<g id="MasterCard">
<path id="Vector" d="M37.6709 28.6958C37.6709 30.5031 36.2056 31.9684 34.3983 31.9684H6.5812C4.7739 31.9684 3.30859 30.5031 3.30859 28.6958V10.6964C3.30859 8.88914 4.7739 7.42383 6.5812 7.42383H34.3983C36.2056 7.42383 37.6709 8.88914 37.6709 10.6964V28.6958Z" fill="#3F51B5"/>
<path id="Vector_2" d="M25.3988 11.5146C23.2289 11.5146 21.1479 12.3766 19.6136 13.911C18.0793 15.4453 17.2173 17.5263 17.2173 19.6962C17.2173 21.866 18.0793 23.947 19.6136 25.4814C21.1479 27.0157 23.2289 27.8777 25.3988 27.8777C27.5687 27.8777 29.6497 27.0157 31.184 25.4814C32.7183 23.947 33.5803 21.866 33.5803 19.6962C33.5803 17.5263 32.7183 15.4453 31.184 13.911C29.6497 12.3766 27.5687 11.5146 25.3988 11.5146Z" fill="#FFC107"/>
<path id="Vector_3" d="M18.865 24.6051C18.4854 24.1003 18.159 23.5546 17.9029 22.9688H22.2595C22.487 22.4484 22.6653 21.9019 22.7807 21.3325H17.3825C17.2745 20.8039 17.2173 20.2574 17.2173 19.6962H22.9443C22.9443 19.1349 22.8871 18.5884 22.7799 18.0599H17.3817C17.4979 17.4904 17.6754 16.9439 17.9029 16.4236H22.2595C22.0034 15.8378 21.6778 15.2921 21.2974 14.7873H18.865C19.2226 14.3127 19.6259 13.8693 20.0767 13.4823C18.6466 12.2583 16.7926 11.5146 14.7628 11.5146C10.2442 11.5146 6.5813 15.1775 6.5813 19.6962C6.5813 24.2148 10.2442 27.8777 14.7628 27.8777C17.4373 27.8777 19.8043 26.5891 21.2966 24.6051H18.865Z" fill="#FF3D00"/>
</g>
</svg>
