<svg width="16" height="17" viewBox="0 0 16 17" fill="none" xmlns="http://www.w3.org/2000/svg">
<g id="PayPal">
<path id="Vector" d="M6.21149 5.27938L6.21313 5.28004C6.24716 5.13506 6.37087 5.02837 6.52566 5.02837H10.9345C10.9401 5.02837 10.9456 5.02608 10.9512 5.02641C10.8573 3.46243 9.54529 2.73755 8.38777 2.73755H3.97892C3.8238 2.73755 3.70009 2.84718 3.66639 2.99183L3.66475 2.99118L1.73751 11.8396L1.74177 11.84C1.73719 11.8609 1.729 11.8809 1.729 11.9035C1.729 12.0844 1.87529 12.2278 2.05626 12.2278H4.69758L6.21149 5.27938Z" fill="#1565C0"/>
<path id="Vector_2" d="M10.9513 5.02637C10.9686 5.31305 10.9496 5.62493 10.8763 5.96953C10.4571 7.93146 8.94155 8.95251 7.06864 8.95251C7.06864 8.95251 5.93304 8.95251 5.65716 8.95251C5.48666 8.95251 5.40615 9.05265 5.36917 9.12923L4.79974 11.7634L4.69993 12.231H4.69796L4.28463 14.1278L4.28889 14.1281C4.2843 14.1491 4.27612 14.169 4.27612 14.1916C4.27612 14.3726 4.42241 14.5189 4.60338 14.5189H7.00318L7.00744 14.5156C7.16191 14.5133 7.28463 14.403 7.3167 14.2577L7.32259 14.2528L7.91559 11.4986C7.91559 11.4986 7.95682 11.2358 8.23303 11.2358C8.50924 11.2358 9.60032 11.2358 9.60032 11.2358C11.4732 11.2358 13.0042 10.2193 13.4237 8.25708C13.8956 6.0448 12.3176 5.03455 10.9513 5.02637Z" fill="#039BE5"/>
<path id="Vector_3" d="M6.52576 5.02837C6.37064 5.02837 6.24694 5.13505 6.21323 5.28003L6.21159 5.27937L5.3689 9.12959C5.40588 9.05301 5.48638 8.95287 5.65689 8.95287C5.93309 8.95287 7.04283 8.95287 7.04283 8.95287C8.91575 8.95287 10.4568 7.93182 10.876 5.96989C10.9497 5.62529 10.9683 5.31341 10.951 5.02673C10.9457 5.02607 10.9399 5.02837 10.9346 5.02837H6.52576Z" fill="#283593"/>
</g>
</svg>
