<svg width="31" height="32" viewBox="0 0 31 32" fill="none" xmlns="http://www.w3.org/2000/svg">
<g id="Pinterest">
<path id="Vector" d="M15.92 2.10693C8.27028 2.10693 2.04663 8.33059 2.04663 15.9803C2.04663 21.9424 5.82718 27.037 11.1164 28.9954C10.9641 27.6372 10.988 25.413 11.2394 24.3361C11.4748 23.3246 12.7602 17.8897 12.7602 17.8897C12.7602 17.8897 12.3721 17.1126 12.3721 15.9649C12.3721 14.1612 13.4171 12.8155 14.7184 12.8155C15.8253 12.8155 16.359 13.6465 16.359 14.6421C16.359 15.7554 15.6512 17.4184 15.2846 18.9596C14.9788 20.251 15.932 21.304 17.2049 21.304C19.5098 21.304 21.2816 18.8733 21.2816 15.3653C21.2816 12.2604 19.051 10.0891 15.8652 10.0891C12.1756 10.0891 10.0098 12.8569 10.0098 15.7175C10.0098 16.8318 10.4388 18.0269 10.975 18.6773C11.0807 18.806 11.0962 18.9182 11.0648 19.0489C10.9665 19.4584 10.7481 20.3393 10.7047 20.5198C10.6483 20.7578 10.5166 20.8072 10.2712 20.6929C8.65114 19.9387 7.63856 17.571 7.63856 15.6686C7.63856 11.578 10.6104 7.82058 16.2078 7.82058C20.7069 7.82058 24.203 11.0258 24.203 15.311C24.203 19.7806 21.3843 23.3774 17.4733 23.3774C16.159 23.3774 14.9239 22.6946 14.5015 21.888C14.5015 21.888 13.8511 24.3641 13.6929 24.9711C13.42 26.0209 12.2517 28.1957 11.6653 29.1836C13.0069 29.617 14.4361 29.8537 15.92 29.8537C23.5701 29.8537 29.7934 23.6304 29.7934 15.9803C29.7934 8.33059 23.5701 2.10693 15.92 2.10693Z" fill="#667064"/>
</g>
</svg>
