<svg width="25" height="26" viewBox="0 0 25 26" fill="none" xmlns="http://www.w3.org/2000/svg">
<g id="Search">
<path id="Vector" d="M10.6771 3.625C6.51543 3.625 3.125 7.01544 3.125 11.1771C3.125 15.3387 6.51543 18.7292 10.6771 18.7292C12.4773 18.7292 14.1321 18.0933 15.4317 17.0365L20.5414 22.1461C20.6134 22.2211 20.6996 22.281 20.795 22.3222C20.8904 22.3634 20.9931 22.3852 21.097 22.3863C21.201 22.3873 21.3041 22.3676 21.4003 22.3283C21.4965 22.2891 21.584 22.231 21.6575 22.1575C21.731 22.084 21.7891 21.9965 21.8283 21.9003C21.8676 21.8041 21.8873 21.701 21.8863 21.597C21.8852 21.4931 21.8634 21.3904 21.8222 21.295C21.781 21.1996 21.7211 21.1134 21.6461 21.0414L16.5365 15.9317C17.5933 14.6321 18.2292 12.9773 18.2292 11.1771C18.2292 7.01544 14.8387 3.625 10.6771 3.625ZM10.6771 5.1875C13.9943 5.1875 16.6667 7.85987 16.6667 11.1771C16.6667 12.793 16.0293 14.253 14.9953 15.3285C14.9316 15.3753 14.8753 15.4316 14.8285 15.4953C13.753 16.5293 12.293 17.1667 10.6771 17.1667C7.35987 17.1667 4.6875 14.4943 4.6875 11.1771C4.6875 7.85987 7.35987 5.1875 10.6771 5.1875Z" fill="#484F46"/>
</g>
</svg>
