<svg width="25" height="26" viewBox="0 0 25 26" fill="none" xmlns="http://www.w3.org/2000/svg">
<g id="Shopping Cart">
<path id="Vector" d="M1.82289 3.625C1.71937 3.62354 1.61659 3.64266 1.52052 3.68127C1.42445 3.71987 1.33701 3.77719 1.26328 3.84988C1.18956 3.92257 1.13101 4.00919 1.09105 4.1047C1.0511 4.20021 1.03052 4.30272 1.03052 4.40625C1.03052 4.50979 1.0511 4.61229 1.09105 4.7078C1.13101 4.80332 1.18956 4.88994 1.26328 4.96263C1.33701 5.03532 1.42445 5.09263 1.52052 5.13124C1.61659 5.16984 1.71937 5.18897 1.82289 5.1875H3.25824C3.63737 5.1875 3.95341 5.44944 4.02525 5.82227L4.18089 6.63607L5.86037 15.4567C6.16408 17.0481 7.56619 18.2083 9.18679 18.2083H18.9382C20.5588 18.2083 21.9615 17.0485 22.2646 15.4567L23.9441 6.63607C23.9656 6.52313 23.962 6.40684 23.9334 6.29547C23.9048 6.18411 23.852 6.08042 23.7788 5.99181C23.7055 5.9032 23.6136 5.83185 23.5096 5.78285C23.4056 5.73385 23.292 5.70841 23.1771 5.70834H5.59385L5.56028 5.53032C5.35032 4.42997 4.37861 3.625 3.25824 3.625H1.82289ZM5.8919 7.27084H22.233L20.7295 15.1647C20.565 16.0291 19.8186 16.6458 18.9382 16.6458H9.18679C8.30665 16.6458 7.5608 16.0291 7.3954 15.1647V15.1637L5.8919 7.27084ZM10.4166 19.25C10.0022 19.25 9.60482 19.4146 9.31179 19.7076C9.01876 20.0007 8.85414 20.3981 8.85414 20.8125C8.85414 21.2269 9.01876 21.6243 9.31179 21.9174C9.60482 22.2104 10.0022 22.375 10.4166 22.375C10.831 22.375 11.2285 22.2104 11.5215 21.9174C11.8145 21.6243 11.9791 21.2269 11.9791 20.8125C11.9791 20.3981 11.8145 20.0007 11.5215 19.7076C11.2285 19.4146 10.831 19.25 10.4166 19.25ZM17.7083 19.25C17.2939 19.25 16.8965 19.4146 16.6035 19.7076C16.3104 20.0007 16.1458 20.3981 16.1458 20.8125C16.1458 21.2269 16.3104 21.6243 16.6035 21.9174C16.8965 22.2104 17.2939 22.375 17.7083 22.375C18.1227 22.375 18.5201 22.2104 18.8132 21.9174C19.1062 21.6243 19.2708 21.2269 19.2708 20.8125C19.2708 20.3981 19.1062 20.0007 18.8132 19.7076C18.5201 19.4146 18.1227 19.25 17.7083 19.25Z" fill="#484F46"/>
</g>
</svg>
