<svg width="40" height="41" viewBox="0 0 40 41" fill="none" xmlns="http://www.w3.org/2000/svg">
<g id="Transaction">
<path id="Vector" d="M20 4.23413C14.552 4.23413 9.7091 6.86015 6.66671 10.9138V8.81746C6.66911 8.65016 6.6379 8.48408 6.57493 8.32906C6.51196 8.17403 6.41851 8.03323 6.30012 7.91499C6.18173 7.79676 6.04081 7.70349 5.8857 7.64072C5.7306 7.57794 5.56448 7.54695 5.39718 7.54956C5.06594 7.55474 4.7503 7.69117 4.51959 7.9289C4.28888 8.16664 4.16196 8.48622 4.16671 8.81746V13.8175C4.16674 14.149 4.29845 14.4669 4.53286 14.7013C4.76728 14.9357 5.0852 15.0674 5.41671 15.0675H10.4167C10.5823 15.0698 10.7468 15.0392 10.9005 14.9774C11.0542 14.9157 11.1941 14.824 11.3121 14.7077C11.43 14.5914 11.5237 14.4528 11.5877 14.2999C11.6516 14.1471 11.6845 13.9831 11.6845 13.8175C11.6845 13.6518 11.6516 13.4878 11.5877 13.335C11.5237 13.1822 11.43 13.0436 11.3121 12.9273C11.1941 12.811 11.0542 12.7193 10.9005 12.6575C10.7468 12.5957 10.5823 12.5651 10.4167 12.5675H8.54659C11.1207 9.03432 15.2836 6.73413 20 6.73413C27.8386 6.73413 34.1667 13.0622 34.1667 20.9008C34.1667 28.6029 28.0545 34.8447 20.4086 35.061C20.2444 35.0657 20.0828 35.1026 19.9329 35.1698C19.7831 35.237 19.6479 35.333 19.5352 35.4524C19.4224 35.5718 19.3343 35.7122 19.2758 35.8657C19.2174 36.0191 19.1897 36.1826 19.1944 36.3468C19.1991 36.5109 19.2361 36.6725 19.3032 36.8224C19.3704 36.9722 19.4664 37.1074 19.5858 37.2202C19.7052 37.3329 19.8456 37.421 19.9991 37.4795C20.1526 37.538 20.316 37.5657 20.4802 37.561C29.4526 37.3072 36.6667 29.9304 36.6667 20.9008C36.6667 11.711 29.1898 4.23413 20 4.23413ZM19.5638 10.0496C19.2326 10.0547 18.917 10.1912 18.6863 10.4289C18.4555 10.6666 18.3286 10.9862 18.3334 11.3175V12.2778C16.0065 12.5994 14.1667 14.5321 14.1667 16.9425C14.1667 19.574 16.3269 21.7341 18.9584 21.7341H20.625C22.1351 21.7341 23.3334 22.9324 23.3334 24.4425C23.3334 25.9525 22.1351 27.1508 20.625 27.1508H18.75C17.7686 27.1508 16.9658 26.487 16.7334 25.5948C16.6958 25.432 16.6259 25.2784 16.528 25.1431C16.43 25.0078 16.3058 24.8935 16.1629 24.8069C16.02 24.7204 15.8612 24.6634 15.6959 24.6393C15.5305 24.6152 15.362 24.6244 15.2004 24.6665C15.0387 24.7087 14.8871 24.7827 14.7545 24.8844C14.622 24.9861 14.5111 25.1134 14.4286 25.2586C14.346 25.4039 14.2934 25.5642 14.2739 25.7301C14.2543 25.8961 14.2683 26.0642 14.3148 26.2247C14.7937 28.0633 16.4053 29.399 18.3334 29.5808V30.4841C18.331 30.6498 18.3616 30.8142 18.4234 30.9679C18.4852 31.1216 18.5769 31.2615 18.6932 31.3795C18.8095 31.4975 18.9481 31.5911 19.1009 31.6551C19.2537 31.719 19.4177 31.7519 19.5834 31.7519C19.749 31.7519 19.913 31.719 20.0659 31.6551C20.2187 31.5911 20.3573 31.4975 20.4736 31.3795C20.5899 31.2615 20.6816 31.1216 20.7433 30.9679C20.8051 30.8142 20.8357 30.6498 20.8334 30.4841V29.6085C23.5942 29.4919 25.8334 27.2303 25.8334 24.4425C25.8334 21.5809 23.4866 19.2341 20.625 19.2341H18.9584C17.6782 19.2341 16.6667 18.2226 16.6667 16.9425C16.6667 15.6623 17.6782 14.6508 18.9584 14.6508H19.3783C19.5125 14.6728 19.6494 14.6728 19.7836 14.6508H20.4167C21.391 14.6508 22.1899 15.3065 22.4284 16.1889C22.4713 16.3474 22.5449 16.4959 22.6451 16.626C22.7454 16.756 22.8702 16.8651 23.0126 16.9469C23.155 17.0287 23.3121 17.0816 23.4749 17.1027C23.6378 17.1237 23.8032 17.1125 23.9617 17.0697C24.1202 17.0268 24.2687 16.9531 24.3988 16.8529C24.5288 16.7526 24.6378 16.6277 24.7196 16.4853C24.8013 16.3429 24.8542 16.1858 24.8753 16.023C24.8963 15.8601 24.8851 15.6947 24.8422 15.5362C24.3505 13.7172 22.7475 12.4011 20.8334 12.2208V11.3175C20.8358 11.1502 20.8046 10.9841 20.7416 10.8291C20.6786 10.674 20.5852 10.5332 20.4668 10.415C20.3484 10.2968 20.2075 10.2035 20.0524 10.1407C19.8973 10.0779 19.7311 10.0469 19.5638 10.0496ZM4.61593 19.2585C3.92426 19.2419 3.35004 19.7925 3.33338 20.4841C3.31671 21.1758 3.8673 21.7419 4.55896 21.7585H4.58338C5.25838 21.7585 5.81671 21.2261 5.83338 20.5427C5.85004 19.8511 5.3076 19.2752 4.61593 19.2585ZM5.14815 24.2C5.06562 24.2084 4.98305 24.2244 4.90076 24.2504C4.24243 24.4504 3.86743 25.1513 4.06743 25.8097C4.23409 26.3513 4.7253 26.6918 5.26697 26.6918C5.38364 26.6918 5.50818 26.6763 5.63318 26.643C6.29151 26.4347 6.65838 25.7339 6.45838 25.0756C6.28338 24.4996 5.72591 24.1412 5.14815 24.2ZM7.44145 28.6514C7.20087 28.6586 6.95909 28.7342 6.74972 28.8842C6.19138 29.2925 6.05818 30.0672 6.46651 30.6339C6.70818 30.9672 7.0921 31.1514 7.48377 31.1514C7.73377 31.1514 7.99138 31.0754 8.20805 30.9171C8.76638 30.5087 8.89959 29.7341 8.49125 29.1674C8.24125 28.8184 7.84241 28.6395 7.44145 28.6514ZM11.0385 32.1671C10.6372 32.1558 10.239 32.3386 9.98377 32.6928C9.58377 33.2511 9.70844 34.0343 10.2751 34.4343H10.267C10.492 34.5927 10.7494 34.6671 10.9994 34.6671C11.3827 34.6671 11.7666 34.4928 12.0166 34.1511C12.4166 33.5928 12.2918 32.8098 11.7334 32.4014C11.5209 32.2514 11.2792 32.1738 11.0385 32.1671ZM15.3321 34.3904C14.8477 34.4388 14.4141 34.7739 14.2579 35.2677C14.0579 35.926 14.4247 36.6251 15.0831 36.8334C15.2081 36.8667 15.334 36.8839 15.459 36.8839C15.9924 36.8839 16.4838 36.5417 16.6504 36.0001C16.8504 35.3417 16.4836 34.6425 15.8252 34.4425C15.6607 34.3904 15.4935 34.3742 15.3321 34.3904Z" fill="#484F46"/>
</g>
</svg>
