<svg width="32" height="32" viewBox="0 0 32 32" fill="none" xmlns="http://www.w3.org/2000/svg">
<g id="Twitter Circled">
<path id="Vector" d="M16.0265 2.10693C8.3762 2.10693 2.15308 8.33006 2.15308 15.9803C2.15308 23.6306 8.3762 29.8537 16.0265 29.8537C23.6768 29.8537 29.8999 23.6306 29.8999 15.9803C29.8999 8.33006 23.6768 2.10693 16.0265 2.10693ZM22.8045 13.2805C22.8106 13.4228 22.8142 13.5676 22.8142 13.7129C22.8142 18.1271 19.4526 23.2186 13.3067 23.2186C11.4199 23.2186 9.66281 22.6655 8.18499 21.7173C8.44617 21.7487 8.71097 21.7637 8.98181 21.7637C10.5477 21.7637 11.9887 21.2305 13.1312 20.3342C11.669 20.3076 10.4361 19.3395 10.0096 18.0137C10.2141 18.0529 10.4234 18.074 10.6394 18.074C10.944 18.074 11.2396 18.0336 11.5188 17.9564C9.99155 17.6482 8.84006 16.2994 8.84006 14.6799C8.84006 14.6654 8.84006 14.6515 8.84006 14.6376C9.29064 14.888 9.80516 15.0388 10.3535 15.0562C9.45592 14.4561 8.8672 13.4343 8.8672 12.2749C8.8672 11.6627 9.03127 11.0891 9.31899 10.5944C10.9675 12.6157 13.4297 13.9458 16.2062 14.0857C16.1489 13.8408 16.1188 13.5863 16.1188 13.3245C16.1188 11.4793 17.6147 9.98341 19.4605 9.98341C20.4213 9.98341 21.2893 10.3888 21.8986 11.0384C22.6592 10.8888 23.3752 10.6107 24.0206 10.2283C23.7715 11.0076 23.2413 11.6627 22.5506 12.0765C23.2274 11.9944 23.8704 11.8159 24.4706 11.5499C24.023 12.22 23.4566 12.8094 22.8045 13.2805Z" fill="#667064"/>
</g>
</svg>
