<svg width="142" height="142" viewBox="0 0 142 142" fill="none" xmlns="http://www.w3.org/2000/svg">
<g id="Vector" filter="url(#filter0_d_187_233)">
<path d="M74.6464 6.10021C76.0006 8.68409 79.5411 9.07053 81.4173 6.83521C83.5507 4.30437 87.6435 5.20608 88.5135 8.39615C89.2851 11.2149 92.6517 12.3515 94.9666 10.5708C97.5918 8.55527 101.39 10.3208 101.556 13.6245C101.7 16.5418 104.748 18.3755 107.389 17.1404C110.385 15.7386 113.721 18.277 113.169 21.5429C112.684 24.4223 115.272 26.8697 118.109 26.2332C121.331 25.5058 124.047 28.711 122.814 31.7799C121.725 34.485 123.722 37.4326 126.635 37.425C129.941 37.4099 131.9 41.1228 130.039 43.8506C128.397 46.2602 129.714 49.5715 132.558 50.1853C135.789 50.8824 136.908 54.9287 134.502 57.1943C132.377 59.1948 132.952 62.7106 135.607 63.923C138.61 65.3021 138.837 69.4924 136 71.1897C133.496 72.6825 133.307 76.2438 135.63 78.0018C138.27 79.9946 137.589 84.1394 134.457 85.1851C131.696 86.1095 130.743 89.5421 132.634 91.7547C134.782 94.2703 133.232 98.1651 129.948 98.5137C127.051 98.8168 125.386 101.969 126.756 104.538C128.314 107.455 125.961 110.933 122.678 110.562C119.781 110.236 117.481 112.949 118.268 115.76C119.168 118.95 116.119 121.829 112.995 120.761C110.233 119.821 107.404 121.973 107.57 124.89C107.759 128.194 104.174 130.361 101.344 128.641C98.8552 127.126 95.6248 128.626 95.1633 131.505C94.6413 134.771 90.6696 136.113 88.279 133.832C86.1683 131.816 82.6958 132.581 81.6291 135.294C80.4187 138.378 76.2503 138.825 74.4044 136.082C72.7778 133.657 69.2222 133.657 67.5957 136.082C65.7497 138.833 61.5889 138.378 60.3709 135.294C59.3042 132.581 55.8317 131.816 53.721 133.832C51.3304 136.12 47.3587 134.779 46.8367 131.505C46.3752 128.626 43.1449 127.126 40.6559 128.641C37.8265 130.361 34.2406 128.194 34.4297 124.89C34.5961 121.981 31.7668 119.821 29.0055 120.761C25.8734 121.829 22.8322 118.942 23.7325 115.76C24.5193 112.949 22.2194 110.236 19.322 110.562C16.0387 110.933 13.6859 107.463 15.2443 104.538C16.6212 101.961 14.9493 98.8168 12.0518 98.5137C8.76092 98.1651 7.21004 94.2703 9.36613 91.7547C11.2574 89.5345 10.3118 86.102 7.54291 85.1851C4.40335 84.1394 3.73004 80.0022 6.3703 78.0018C8.70039 76.2438 8.5037 72.69 5.99961 71.1897C3.16265 69.4924 3.38961 65.3021 6.393 63.923C9.04083 62.7106 9.61578 59.1948 7.49752 57.1943C5.09178 54.9287 6.21143 50.8824 9.44178 50.1853C12.2863 49.5715 13.6102 46.2602 11.961 43.8506C10.0924 41.1152 12.0594 37.4099 15.3654 37.425C18.278 37.4326 20.2752 34.485 19.1858 31.7799C17.9527 28.711 20.661 25.5134 23.8914 26.2332C26.7359 26.8697 29.3156 24.4223 28.8315 21.5429C28.2868 18.277 31.623 15.7386 34.6113 17.1404C37.2515 18.3755 40.3003 16.5418 40.4441 13.6245C40.6105 10.3208 44.4158 8.55527 47.0334 10.5708C49.3483 12.344 52.7149 11.2073 53.4865 8.39615C54.3565 5.20608 58.4493 4.2968 60.5827 6.83521C62.4589 9.07053 65.9994 8.68409 67.3536 6.10021C68.8893 3.16777 73.0804 3.16777 74.6162 6.10021H74.6464Z" fill="#5D865A"/>
</g>
<defs>
<filter id="filter0_d_187_233" x="0.731707" y="0.632586" width="140.537" height="140.537" filterUnits="userSpaceOnUse" color-interpolation-filters="sRGB">
<feFlood flood-opacity="0" result="BackgroundImageFix"/>
<feColorMatrix in="SourceAlpha" type="matrix" values="0 0 0 0 0 0 0 0 0 0 0 0 0 0 0 0 0 0 127 0" result="hardAlpha"/>
<feOffset/>
<feGaussianBlur stdDeviation="1.63415"/>
<feComposite in2="hardAlpha" operator="out"/>
<feColorMatrix type="matrix" values="0 0 0 0 0 0 0 0 0 0 0 0 0 0 0 0 0 0 0.09 0"/>
<feBlend mode="normal" in2="BackgroundImageFix" result="effect1_dropShadow_187_233"/>
<feBlend mode="normal" in="SourceGraphic" in2="effect1_dropShadow_187_233" result="shape"/>
</filter>
</defs>
</svg>
