<svg width="40" height="40" viewBox="0 0 40 40" fill="none" xmlns="http://www.w3.org/2000/svg">
<g id="Visa">
<path id="Vector" d="M36.9422 28.6958C36.9422 30.5031 35.4769 31.9684 33.6696 31.9684H5.85244C4.04514 31.9684 2.57983 30.5031 2.57983 28.6958V10.6964C2.57983 8.88914 4.04514 7.42383 5.85244 7.42383H33.6696C35.4769 7.42383 36.9422 8.88914 36.9422 10.6964V28.6958Z" fill="#1565C0"/>
<path id="Vector_2" d="M12.5498 15.6056L10.4014 22.0133C10.4014 22.0133 9.85566 19.3028 9.80166 18.9624C8.57852 16.1717 6.77368 16.3272 6.77368 16.3272L8.90087 24.6052V24.6036H11.4871L15.0632 15.6056H12.5498ZM14.5977 24.6052H16.9466L18.3669 15.6056H15.9885L14.5977 24.6052ZM31.2217 15.6056H28.75L24.8965 24.6052H27.2299L27.711 23.3199H30.6531L30.9034 24.6052H33.0412L31.2217 15.6056ZM28.3622 21.601L29.641 18.1999L30.3103 21.601H28.3622ZM21.6992 18.2285C21.6992 17.7327 22.1067 17.3638 23.275 17.3638C24.0342 17.3638 24.9039 17.9152 24.9039 17.9152L25.2852 16.0261C25.2852 16.0261 24.1741 15.6047 23.0835 15.6047C20.6135 15.6047 19.3397 16.7861 19.3397 18.2817C19.3397 20.9865 22.5951 20.6159 22.5951 22.0051C22.5951 22.2432 22.4061 22.7938 21.0504 22.7938C19.6907 22.7938 18.7931 22.2956 18.7931 22.2956L18.3882 24.1086C18.3882 24.1086 19.2578 24.6044 20.9383 24.6044C22.6229 24.6044 24.9595 23.3444 24.9595 21.5347C24.9595 19.3576 21.6992 19.2005 21.6992 18.2285Z" fill="white"/>
<path id="Vector_3" d="M10.1169 20.4694L9.32653 16.5848C9.32653 16.5848 8.96899 15.7429 8.03957 15.7429C7.11015 15.7429 4.40698 15.7429 4.40698 15.7429C4.40698 15.7429 9.03854 17.1109 10.1169 20.4694Z" fill="#FFC107"/>
</g>
</svg>
